<svg xmlns="http://www.w3.org/2000/svg" width="491.32" height="491.32"><path fill="#ca5327" d="M245.66 0C110 0 0 109.99 0 245.66c0 10.67.68 21.19 2 31.5l33.9-12.06 35.38 9.5a177.94 177.94 0 0 1-2.37-28.94c0-97.62 79.13-176.75 176.75-176.75s176.76 79.13 176.76 176.75c0 6.5-.36 12.93-1.05 19.25l34.15 13.38 34.62-8.49a248.58 248.58 0 0 0 1.18-24.14C491.32 110 381.34 0 245.66 0zm10.48 9.84c5.3.09 9.04 1.22 10.65 2.12l-1.85 6.4a20.9 20.9 0 0 0-8.57-1.87c-9-.14-15.56 5.37-15.73 15.97-.15 9.72 5.4 15.96 15.1 16.12 3.26.05 6.67-.54 8.81-1.46l1.23 6.37c-1.92.92-6.13 1.9-11.47 1.8-14-.22-22.37-9.14-22.15-22.57.23-14.5 10.5-23.1 23.98-22.88zm-49.29.88c.38.01.74.04 1.07.08l.74 6.17a9.7 9.7 0 0 0-3.48.16c-3.9.83-4.5 4.39-3.69 8.2l.35 1.63 6.81-1.45 1.26 5.86-6.76 1.45 5.4 25.29-7.9 1.68-5.39-25.29-4.22.9-1.25-5.87 4.22-.9-.28-1.32c-.86-4.04-.64-8.33 1.51-11.47 1.84-2.68 4.78-4.16 7.51-4.75 1.57-.33 2.95-.42 4.1-.37zm80.84 15.4a19.82 19.82 0 0 1 3.46.4c9.28 1.9 14.16 9.71 12.23 19.17-2.35 11.48-11.45 14.97-19.43 13.34-8.8-1.8-14.38-9.27-12.34-19.27 1.84-8.95 8.21-13.84 16.08-13.64zm.08 5.94c-4.37.26-7.07 4.61-8 9.16-1.23 6 .84 11.16 5.6 12.13 4.53.93 8.56-2.8 9.85-9.08 1-4.9-.03-10.94-5.47-12.06a7.61 7.61 0 0 0-1.98-.15zm31.08 1.49 6.23 2.91-1.65 4.4.17.07a10.97 10.97 0 0 1 11.17-.73 9.14 9.14 0 0 1 5.52 9.07l.12.05a13.03 13.03 0 0 1 5.22-1.97 11 11 0 0 1 6.66 1.05c4.77 2.23 8.1 7.77 3.77 17.02l-7.95 16.99-7.11-3.33 7.46-15.96c2.25-4.81 1.9-8.41-1.57-10.04-2.5-1.17-5.15-.26-6.87 1.47a9.01 9.01 0 0 0-1.51 2.26l-8.1 17.31-7.12-3.33 7.8-16.68c1.9-4.06 1.61-7.67-1.74-9.23-2.73-1.28-5.56 0-7.18 1.66-.6.61-1.1 1.42-1.49 2.24l-7.98 17.06-7.11-3.33 9.48-20.27c1.56-3.34 2.74-6.13 3.78-8.7zm-145.13 1.4c6.24.14 11.54 4.09 14.1 10.87 4.12 10.96-1.72 18.77-9.34 21.64-8.42 3.17-17.11-.18-20.71-9.74-3.68-9.78.49-18.22 9.47-21.6 2.22-.84 4.4-1.22 6.48-1.17zm-1.83 6.26a6.82 6.82 0 0 0-2.8.46c-5.3 2-5.51 7.97-3.64 12.94 2.16 5.74 6.66 9 11.2 7.28 4.33-1.63 5.76-6.93 3.5-12.93-1.44-3.8-4.4-7.54-8.26-7.75zm-51.47 2.52 25.2 39.04-6.78 4.38-25.2-39.05 6.78-4.37zm254.3 18.37 5.18 4.53-2.8 3.76.15.12c2.78-.84 6.89-1.14 10.93 2.4a9.15 9.15 0 0 1 2.8 10.23l.1.09c1.98-.58 3.87-.7 5.56-.45a11 11 0 0 1 6.1 2.85c3.97 3.46 5.64 9.7-1.08 17.4l-12.34 14.12-5.92-5.17L395 98.71c3.5-4 4.16-7.55 1.26-10.08-2.07-1.81-4.87-1.68-7-.5a9.05 9.05 0 0 0-2.08 1.77l-12.58 14.4-5.92-5.18 12.12-13.87c2.96-3.38 3.67-6.92.88-9.36-2.27-1.98-5.35-1.53-7.36-.38a8.23 8.23 0 0 0-2.05 1.74l-12.4 14.18-5.9-5.17 14.72-16.85a175.3 175.3 0 0 0 6.03-7.3zm-265.84 9.47c4.17-.26 7.72 2.18 10.55 5.51l7.4 8.76a47.73 47.73 0 0 0 5.34 5.54l-5.54 4.69-2.72-2.35-.15.12c.16 3.17-1.25 6.66-4.4 9.33-4.93 4.17-10.65 2.96-13.8-.75-5.18-6.13-2.35-13.87 6.64-21.41l-.34-.4c-1.35-1.6-4.23-3.72-8.52-.07a17 17 0 0 0-5 7.35l-4.6-2.96c.89-2.67 3.16-6.37 6.98-9.61 2.93-2.48 5.65-3.6 8.16-3.75zm6.85 13.28c-4.38 3.61-7.76 8.04-4.63 11.74 2.02 2.38 4.53 2.18 6.47.54a6.56 6.56 0 0 0 1.97-7.44 6.07 6.07 0 0 0-.96-1.48l-2.85-3.36zM83.3 97.15c2.76.05 5.9 1.2 9.3 4.01l14.62 12.02-5.12 6.23-13.88-11.42c-3.53-2.9-7.29-3.82-10.08-.42-2.04 2.47-1.7 5.62-.33 7.84a7.86 7.86 0 0 0 1.74 1.9l14.47 11.92-5.12 6.22-17.28-14.22a175.78 175.78 0 0 0-7.49-5.81l4.48-5.44 3.94 2.73.12-.14a11.6 11.6 0 0 1 2.2-11.34 10.57 10.57 0 0 1 8.43-4.09zm336.02 7.58 4.68 6.57-14.13 10.05c-4.3 3.07-6.1 6.4-3.62 9.87a6.69 6.69 0 0 0 9.35 1.43l15.66-11.15 4.67 6.57L417.76 141c-3.09 2.2-5.6 4.12-7.63 5.74l-4.08-5.73 3.7-3.1-.1-.16c-2.6.2-7.12-.45-10.43-5.1-3.37-4.74-3.6-11.06 4.89-17.1l15.21-10.83zM58.31 123.35l6.53 3.85c-.47.52-.9 1.08-1.4 1.92-1.94 3.3-1.18 6.84 1.6 9.31.54.48 1.24.97 1.98 1.41l14.24 8.39-4.09 6.95-18.62-10.97a166.41 166.41 0 0 0-8.96-4.98l3.53-6 5.37 2.8.12-.19c-3.07-3.63-3.16-7.99-1.41-10.95a7.7 7.7 0 0 1 1.1-1.54zm384.56 16.64 2.92 6.4-4.19 2.35.08.17a11.6 11.6 0 0 1 9.22 6.96c2.3 5.05 1.44 11.79-7.73 15.97l-17.22 7.85-3.34-7.34 16.35-7.46c4.16-1.9 6.64-4.86 4.81-8.87-1.33-2.92-4.3-4-6.9-3.74-.7.05-1.64.35-2.48.72l-17.06 7.78-3.34-7.34 20.37-9.28c3.35-1.53 6.06-2.89 8.51-4.17zM43.41 150.71l20.76 8.19c3.52 1.38 6.51 2.44 8.97 3.25l-2.58 6.55-4.62-1.4-.07.17a11.55 11.55 0 0 1 1.4 11.52c-2.12 5.4-7.3 9.04-16.99 5.22l-17.38-6.85 2.96-7.5L52 176.22c4.92 1.94 8.69 1.63 10.25-2.34a6.69 6.69 0 0 0-3.9-8.62l-17.88-7.05 2.95-7.5zm425.04 24.84c1.87 0 3.52 1.19 4.14 3.3.78 2.62-.54 4.81-2.9 5.54-2.3.69-4.66-.44-5.47-3.18a4.23 4.23 0 0 1 2.92-5.46c.45-.13.89-.2 1.32-.2zm-9.73 3.17 2.28 7.74-30.55 9-2.28-7.73 30.55-9zM41.36 191.19c1.12.01 2.28.13 3.47.35 11.5 2.15 15.16 11.2 13.66 19.2-1.65 8.84-9.02 14.54-19.06 12.66-10.27-1.92-15.33-9.87-13.57-19.3 1.53-8.16 7.64-13.02 15.5-12.91zm422.03 3.86.82 4.47 7.1-1.3 3.3 7.41-8.97 1.65 1.38 7.53-5.9 1.09-1.39-7.54-13.82 2.54c-3.83.7-5.6 2.09-5.04 5.12.25 1.35.6 2.34.91 3.01l-6 1.27a18.02 18.02 0 0 1-1.87-5.62c-.53-2.91.01-5.52 1.33-7.28 1.5-2.03 4.23-3.34 8.34-4.1l14.73-2.7-.82-4.47 5.9-1.08zm-423.65 4.4c-3.82.19-7.4 1.85-8.17 5.95-1.04 5.55 3.96 8.85 9.18 9.82 6.03 1.13 11.14-1.03 12.04-5.8.85-4.55-2.95-8.52-9.25-9.7a16.52 16.52 0 0 0-3.8-.27zm428.48 22.3.32 8.88-16.85 6.35c-1.95.7-4.36 1.48-6.11 2.02v.18l6.3 1.47 17.19 4.37.3 8.59-22-7.2c-12.05-3.93-17.43-6.7-20.87-10.33a16.68 16.68 0 0 1-4.38-8.3l6.72-2.05a14.5 14.5 0 0 0 7.6 8.8c.55.3 1.03.47 1.43.46.35-.01.81-.12 1.55-.48l28.8-12.75zm-457.47 9.52 28.6.7c12.16.3 16.06 6.3 15.84 15.02a22.13 22.13 0 0 1-1.2 6.74l-6.48-1.15c.47-1.27.87-3.01.92-4.95.11-4.58-1.9-7.42-9.55-7.6l-28.33-.7.2-8.06z"/><path fill="#7c221a" d="M419.64 277.03c-14.8 82.66-87.06 145.39-173.98 145.39-83.11 0-152.82-57.38-171.7-134.68L36.4 277.66 3.85 289.24c20.57 114.88 121 202.08 241.81 202.08 123.1 0 225.05-90.54 242.9-208.67l-35.29 7.99-33.63-13.6zM61.7 306.33c5.31-.3 10.49 3.28 13.28 10.24 1.73 4.27 2.07 7.77 1.86 10.24l-6.51.62c.17-1.73.2-4.93-1.3-8.64-1.84-4.58-5.06-5.54-7.38-4.6-3.02 1.21-3.53 4.07-3.42 10.14.14 7.91-1.97 12.6-7.65 14.88-6.34 2.55-13.78-.02-17.87-10.2-1.68-4.18-2.24-8.99-1.79-11.68l6.61-.8c-.4 2.86-.15 6.87 1.33 10.55 1.85 4.6 5.04 6.3 8.27 5 2.98-1.2 3.93-3.9 3.74-9.62-.32-7.45 1.5-13.03 7.16-15.3 1.21-.49 2.45-.76 3.67-.83zm376.23 4.9c2.12-.1 4.6.34 7.45 1.52l16.73 6.88-2.96 7.2-15.95-6.57c-4.12-1.7-7.86-1.5-9.5 2.48a6.41 6.41 0 0 0 3.78 8.43l17 7-2.96 7.19-41.44-17.06 2.96-7.2 16.9 6.96.05-.11a10.88 10.88 0 0 1-1.78-4.91c-.22-1.73.02-3.65.75-5.43a9.89 9.89 0 0 1 8.97-6.37zM68.48 333.8l4.4 7.35-11.3 13.2a134.44 134.44 0 0 1-4.22 4.55l.1.15 6-1.69 16.55-4.3 4.25 7.12-21.94 4.15c-12 2.27-17.84 2.44-22.44.97a16.1 16.1 0 0 1-7.55-4.98l4.71-4.86a13.97 13.97 0 0 0 10.52 3.91c.61 0 1.1-.08 1.42-.28.29-.17.63-.48 1.09-1.12l18.41-24.17zm352.2 4.01 4.99 2.94-3.76 6.37L433.6 354c3.24 1.9 5.4 2.02 6.9-.54a11.7 11.7 0 0 0 1.25-2.77l5.17 2.87a17.38 17.38 0 0 1-2.19 5.27c-1.45 2.46-3.5 4.01-5.57 4.46-2.37.55-5.19-.23-8.66-2.28l-12.44-7.34-2.23 3.78-4.99-2.94 2.23-3.78-6-3.54 2.3-7.49 7.57 4.47 3.76-6.36zm-24.35 12.63 36.21 26.39-4.58 6.28-36.21-26.4 4.58-6.27zM83.72 364.64c3.2-.07 6.64 1.58 9.43 5.08a17.7 17.7 0 0 1 3.66 7.51l-5.22 2.2a13.96 13.96 0 0 0-2.68-6.17c-1.73-2.16-3.75-2.51-5.23-1.33-1.52 1.22-1.33 2.96-.01 6.88 1.95 5.6 1.33 9.4-2.19 12.25-4.37 3.5-10.26 2.61-15.33-3.72-2.32-2.9-3.74-6.1-4.16-8.66l5.39-2.31c.24 2 1.4 5.35 3.15 7.52 2.13 2.67 4.2 2.97 5.78 1.7 1.63-1.3 1.66-2.94.35-6.73-2.15-5.98-1.16-9.99 1.7-12.24a8.83 8.83 0 0 1 5.35-1.98zm316.53 9.5c3.08.2 5.94 1.86 8.43 4.13l8.17 7.46a46.27 46.27 0 0 0 5.78 4.64l-4.72 5.17-2.9-1.91-.12.14c.54 3-.38 6.52-3.06 9.46-4.2 4.6-9.82 4.14-13.28.98-5.72-5.22-3.96-12.97 3.7-21.3l-.37-.34c-1.5-1.36-4.51-3.03-8.16 1a16.4 16.4 0 0 0-3.88 7.64l-4.76-2.26c.52-2.67 2.23-6.5 5.5-10.07 3.32-3.63 6.6-4.92 9.67-4.74zM107.3 376.5l6.69 4.08-6.22 6.22 5.23 5.23-4.09 4.1-5.23-5.23-9.58 9.6c-2.66 2.65-3.3 4.71-1.2 6.81.95.94 1.76 1.54 2.38 1.9l-4.07 4.3a17.4 17.4 0 0 1-4.56-3.44c-2.02-2.02-3.02-4.39-2.94-6.51.07-2.43 1.53-4.96 4.37-7.81L98.3 385.5l-3.1-3.1 4.1-4.1 3.1 3.1 4.91-4.92zm298.8 9.66c-3.75 4-6.43 8.65-2.98 11.8 2.22 2.04 4.6 1.54 6.26-.28a6.32 6.32 0 0 0 .96-7.35c-.28-.49-.7-.94-1.1-1.3l-3.14-2.87zm-28.91 10.2c4.51.24 8.48 3.2 11.1 6.5.9 1.13 1.51 2.12 1.8 2.73L374 418.35c3.62 4.23 8.51 3.46 12.41.37a23.38 23.38 0 0 0 5.76-6.38l4.22 3.48a27.8 27.8 0 0 1-7.2 8.2c-7.82 6.2-16.22 5-22.07-2.39-5.27-6.64-6.22-16.12 1.52-22.26 2.94-2.33 5.85-3.16 8.56-3.02zm-259.62 2.62c3-.04 6.1.93 9.03 3.19 7.91 6.1 5.47 14.59 1.36 19.92a16.31 16.31 0 0 1-2.2 2.41l-16.29-12.55c-3.23 4.54-1.3 9.1 2.63 12.14 2.83 2.18 5.2 3.3 7.59 4.05l-2.35 4.93a27.8 27.8 0 0 1-9.7-5c-7.9-6.1-8.77-14.55-3.02-22 3.24-4.2 7.96-7.03 12.95-7.1zm257.67 3.4a6.1 6.1 0 0 0-3.7 1.45c-3.74 2.97-2.6 7.61-.92 10.29l10.6-8.4c-1.2-1.55-3.4-3.39-5.98-3.34zm-29.25.49 19.58 37.76-6.9 3.58-8.65-16.66-15.95 8.27 8.64 16.67-6.9 3.57-19.59-37.76 6.9-3.58 7.84 15.1 15.96-8.27-7.84-15.1 6.9-3.58zm-226.61 1.82c-2.63-.14-5.1 1.4-6.6 2.97l10.7 8.26c1.77-2.24 3.62-6.67-.5-9.85a6.37 6.37 0 0 0-3.6-1.38zm20.9 9.42 5.98 2.86-1.62 4.22.16.08c2.37-1.5 6.1-2.85 10.78-.62a8.82 8.82 0 0 1 5.25 8.79l.12.05a12.53 12.53 0 0 1 5.05-1.86c2.08-.3 4.1-.04 6.41 1.06 4.59 2.19 7.76 7.56 3.51 16.45l-7.8 16.32-6.83-3.27 7.32-15.33c2.2-4.62 1.9-8.1-1.44-9.7-2.4-1.14-4.96-.29-6.64 1.37a8.69 8.69 0 0 0-1.47 2.17l-7.95 16.63-6.84-3.26 7.66-16.03c1.87-3.9 1.61-7.38-1.61-8.92-2.63-1.26-5.37-.04-6.94 1.55a7.87 7.87 0 0 0-1.45 2.15l-7.83 16.39-6.84-3.27 9.3-19.48c1.53-3.2 2.7-5.89 3.72-8.35zm101.57 14.3c2.06.12 3.7.56 4.88 1.05l-.89 5.93a9.28 9.28 0 0 0-3.27-.75c-3.84-.22-5.3 2.94-5.53 6.7l-.09 1.6 6.7.38-.33 5.78-6.65-.38-1.44 24.9-7.76-.45 1.44-24.9-4.16-.24.34-5.78 4.15.24.08-1.3c.23-3.97 1.53-7.91 4.33-10.28 2.4-2.02 5.5-2.65 8.2-2.5zm-48.81 7.3c1.17.03 2.42.2 3.72.55a17.7 17.7 0 0 1 7.4 3.87l-2.88 4.87a13.95 13.95 0 0 0-5.83-3.37c-2.67-.71-4.5.2-5 2.04-.5 1.88.7 3.17 4.09 5.53 4.9 3.35 6.65 6.77 5.52 11.15-1.44 5.42-6.7 8.2-14.54 6.12-3.59-.96-6.63-2.68-8.49-4.48l2.96-5.07a17.04 17.04 0 0 0 7 4.18c3.3.88 5.15-.12 5.67-2.06.53-2.02-.43-3.36-3.73-5.63-5.29-3.53-6.87-7.34-5.9-10.85 1.12-4.24 4.91-6.96 10-6.85zm104.14.39 1.54 7.15c-.68 0-1.36.06-2.28.26-3.61.78-5.63 3.62-5.57 7.2.01.7.12 1.52.3 2.34l3.33 15.58-7.6 1.63-4.37-20.39c-.86-4.02-1.58-6.96-2.31-9.6l6.57-1.41 1.5 5.65.22-.05c.58-4.55 3.62-7.45 6.86-8.15a7.4 7.4 0 0 1 1.81-.22zm-35.43 5.77c8.24.17 14.03 5.99 14.64 14.7.79 11.27-6.77 16.87-14.6 17.42-8.66.6-15.77-4.9-16.45-14.72-.7-10.06 5.49-16.71 14.73-17.36.57-.04 1.13-.05 1.68-.04zm-.54 5.69a7.27 7.27 0 0 0-.97 0c-5.44.38-7.3 5.84-6.95 10.95.42 5.9 3.67 10.16 8.35 9.83 4.44-.31 7.23-4.82 6.8-10.98-.32-4.52-2.55-9.5-7.23-9.8z"/><path fill="#2b9d41" d="m263.42 275.26-16.68 6.05c.71 4.7 2.2 12.06 5 18.07l.63 1.6a69.71 69.71 0 0 0 3.84 8c6.19 10.83 14.7 15.82 24.98 6.82l.88-.63a83.04 83.04 0 0 0 28.03-37.28l.59-1.62c.86-3 1.4-5.8 1.7-8.4l.24-3.2c1.72-14.85-14.03-22.26-17.74-23.88-3.15-1.38-15.62-5.65-23.72-9.83l-2.31-1.27c-10.9-5.18-7.42-16.47 0-27 5.62-8 11.47-2.7 13.73-.04l.7.87 1.8 2.3a82.3 82.3 0 0 1 7.7 12.92l16.15-5.93-.25-.53a84.08 84.08 0 0 0-13.6-21.72l-.68-.76c-3.64-4.4-10.44-10.02-10.44-10.02-7.5-6.13-15.62-3-22.52 5.3-4.37 5.25-8.33 12.4-11 17.73 0 0-1.14 2.38-2.44 6.55 0 0-4.66 16.3-.54 24.22s13.59 12.75 20.1 15.38l4.96 2.03 8.66 3.25c9.62 3.75 18.42 4.55 10.83 20.97l-2.05 3.78c-3.83 6.5-9.08 13.07-13 17.66-9.56 11.17-12.9-15.12-13.55-21.38m-113.58-10 .1-83.62c-.15-2.8-.89-5.5-4.04-4.42l-31.5 10.87-2.68.93v.13l-9.95 3.85c-.95.31-4.2 4.5-.95 9.63s10.87 16.34 10.87 16.34l11.25-6.68s-2.62-3.88-3.85-6.2c-.71-1.35-.11-1.88.94-2.34l10.75-4.26 1.88-.8v77.67c0 5.5-2.1 10.92-8.9 18.45s-12.46 5.85-24.61-11.32l-15.08 10.05s6.6 8.64 9.48 11.73 10.15 9.74 16.33 13.4 11 1.94 17.76-3.72 14.34-13.92 18.8-21.78 3.4-18.9 3.4-27.9m189.9 21.3h-.13l.18-30.34c.35-14.9 12.05-24.14 23.57-18.9 2.46 1.12 2.56.03 2.55-2.25-.02-5.15-.15-10.32.1-15.46.15-3.14-.92-4-3.24-4.47-20.67-4.13-40.1 14.94-40.56 40.28-.27 14.35-.25 28.72-.03 43.07v20.5c5.8-.97 11.65-1.7 17.57-2.16zm52.53 10.5-.01-15.8.08-13.03c-2.67 3.12-4.96 6.12-7.65 8.68-2.78 2.66-5.71 5-8.9 6.8-1.24.7-1.08 1.79-1.06 2.85h-.03v11.56l-.05 2.32c-.03.8-.11 1.57-.21 2.34v14.26c6 .55 11.95 1.36 17.83 2.43zM374.7 194.7c0 .2-.03.38-.04.57v40c-.04 15.72-11.6 25.55-23.8 20.13-2.16-.97-2.43-.09-2.42 2.12.04 5.28.17 10.56-.07 15.82-.13 2.97.84 3.79 3.03 4.25 20.94 4.42 40.65-15.3 40.81-41.06l.04-10.4h.01v-50.78a202.63 202.63 0 0 1-17.56 2.4zm-52.58-1.59c-.03 1.53-.02 3.05 0 4.58v5.92l-.08 22.05c4.86-7.93 10.38-13.03 16.8-16.74 1.2-.69.86-1.86.86-2.9l-.02-5.6v-5.9l.02-1.3a27.5 27.5 0 0 1 .16-2.32V178a203.9 203.9 0 0 1-17.74-2.18zM192.06 313.43c2.14 2.06 10.58 9.7 17.68 5.82 6.83-3.75 18.82-15.37 26.3-30.37l.49-1.06-16.25-5.96a85.91 85.91 0 0 1-8.19 12.95s-6.4 9.12-14.77-.28l-2.96-3.34A67.43 67.43 0 0 1 178 246.82a67.43 67.43 0 0 1 16.24-44.22l3.08-3.32c8.37-9.4 14.77-.3 14.77-.3a85.95 85.95 0 0 1 8.19 12.96l16.25-5.96-.5-1.06c-7.47-15-19.46-26.62-26.29-30.36-7.1-3.9-15.54 3.75-17.68 5.82l-3.09 2.63c-17.13 15.33-28.01 38.23-28.01 63.81s10.88 48.48 28.01 63.81z"/></svg>